<svg width="50" height="80" viewBox="0 0 50 80" fill="none" xmlns="http://www.w3.org/2000/svg">
<g clip-path="url(#clip0_25041_3327)">
<path d="M26.2108 64.6861C15.2134 64.6564 5.63115 57.7096 2.50531 47.3479C-0.105337 38.6655 1.58721 30.7296 7.45909 23.7943C11.0688 19.5324 15.7237 16.9201 21.1959 15.8022C24.2571 15.1779 27.4101 15.1521 30.481 15.7262C30.8245 15.789 30.8278 15.8814 30.694 16.1588C29.1836 19.3028 27.6805 22.4513 26.1844 25.6041C26.1473 25.7027 26.0786 25.7861 25.9889 25.8414C25.8992 25.8967 25.7938 25.9207 25.689 25.9095C22.5425 25.99 19.5133 27.1204 17.0833 29.121C14.6534 31.1216 12.9623 33.8774 12.2791 36.9499C10.7715 43.6656 14.4043 50.6124 20.8145 53.0745C25.902 55.0279 30.6362 54.2502 34.9427 50.9113C35.1623 50.7462 35.2531 50.7132 35.41 50.9856C37.0613 53.8753 38.7268 56.7595 40.4067 59.6382C40.5537 59.8909 40.5008 60.0048 40.2829 60.1567C37.0392 62.4517 33.2868 63.9249 29.3482 64.45C28.3073 64.5842 27.2601 64.6631 26.2108 64.6861Z" fill="#EF492D"/>
<path d="M43.295 57.5363C43.1596 57.4636 43.1216 57.315 43.0522 57.1944C41.1742 53.947 39.3028 50.6962 37.4379 47.4421C37.3745 47.3088 37.2711 47.1986 37.142 47.1269C37.0129 47.0553 36.8647 47.0258 36.718 47.0425C32.9894 47.054 29.2625 47.0425 25.534 47.0425H25.07C25.0667 46.8992 25.1187 46.7603 25.2153 46.6544C27.1087 43.3651 29.0033 40.0758 30.8989 36.7865C30.9493 36.6777 31.0324 36.5874 31.1366 36.5281C31.2408 36.4689 31.3609 36.4438 31.4802 36.4562C35.2968 36.4661 39.1123 36.4661 42.9267 36.4562C43.0453 36.4439 43.1647 36.4691 43.2682 36.5284C43.3716 36.5876 43.4538 36.6779 43.503 36.7865C45.4064 40.1033 47.3185 43.4158 49.2395 46.7238C49.3037 46.8086 49.3398 46.9113 49.3427 47.0175C49.3457 47.1238 49.3154 47.2284 49.256 47.3166C47.3262 50.6488 45.4036 53.9778 43.4882 57.3034C43.437 57.3876 43.4138 57.5032 43.295 57.5363Z" fill="#EF492D"/>
<path d="M35.2562 22.6054C34.5726 21.9217 33.9352 21.2678 33.2747 20.6239C33.0699 20.4257 33.2136 20.2787 33.3011 20.1285C34.0569 18.8124 35.2875 17.8352 36.7407 17.3973C37.6213 17.1067 38.5529 17.0036 39.4757 17.0946C40.3986 17.1856 41.2921 17.4687 42.099 17.9257C45.0713 19.5324 44.8054 23.2593 43.0898 24.9436C42.4393 25.5699 41.7025 26.0998 40.9018 26.5172C40.0762 26.9564 39.2506 27.3709 38.4415 27.8382C37.7694 28.223 37.2459 28.7547 37.0032 29.5242C36.9041 29.8346 36.9636 29.9155 37.2955 29.9122C39.4785 29.899 41.6631 29.9122 43.8477 29.899C44.1779 29.899 44.3018 29.9617 44.2886 30.3217C44.2589 31.0929 44.2704 31.8656 44.2886 32.6335C44.2886 32.8779 44.2209 32.9637 43.9699 32.9637C40.4593 32.9571 36.9498 32.9571 33.4414 32.9637C33.2763 32.9637 33.1227 32.9637 33.1211 32.7243C33.1211 30.2936 33.5702 28.0298 35.4725 26.2959C36.3786 25.4935 37.3958 24.8261 38.4926 24.3144C39.0937 24.0205 39.7014 23.7398 40.2265 23.3138C40.6855 22.9406 41.0026 22.4881 41.0356 21.8772C41.0851 20.9211 40.3289 20.211 39.1862 20.1367C37.5432 20.0195 36.3576 20.7593 35.5286 22.1331C35.4461 22.2685 35.3701 22.4072 35.2562 22.6054Z" fill="#EF492D"/>
<path d="M43.6283 60.9975V60.2032H43.3442V60.0381H44.1055V60.2032H43.8182V60.9975H43.6283ZM44.2277 60.9975V60.0414H44.5166L44.6818 60.6936L44.8469 60.0414H45.1375V60.9975H44.974V60.2445L44.7841 60.9975H44.5975L44.4093 60.2445V60.9975H44.2277Z" fill="#EF492D"/>
</g>
<defs>
<clipPath id="clip0_25041_3327">
<rect width="48.6566" height="50" fill="white" transform="translate(1 15)"/>
</clipPath>
</defs>
</svg>
