<svg width="210" height="80" viewBox="0 0 210 80" fill="none" xmlns="http://www.w3.org/2000/svg">
<g clip-path="url(#clip0_2547_878)">
<mask id="mask0_2547_878" style="mask-type:luminance" maskUnits="userSpaceOnUse" x="9" y="27" width="193" height="25">
<path d="M202 27H9V52H202V27Z" fill="white"/>
</mask>
<g mask="url(#mask0_2547_878)">
<path d="M125.523 38.5088H123.621L128.143 27.2148H129.736L134.184 38.5088H132.282L131.241 35.8361H126.539L125.528 38.5088H125.523ZM128.87 29.305L127.012 34.3898H130.763L128.875 29.305H128.87Z" fill="#1D252C"/>
<path d="M135.143 28.7991H132.613V27.2148H139.426V28.8042H136.896V38.5139H135.143V28.7991Z" fill="#1D252C"/>
<path d="M142.566 28.7991H140.035V27.2148H146.849V28.8042H144.319V38.5139H142.566V28.7991Z" fill="#1D252C"/>
<path d="M156.087 31.6556L154.199 35.3351L156.4 37.6398L155.33 38.7079L153.367 36.6331C152.77 37.8084 151.923 38.7232 150.155 38.7232C147.983 38.7232 146.629 37.2106 146.629 35.5037C146.629 33.6895 148.089 32.739 149.07 32.2075C148.328 31.4 147.834 30.6641 147.804 29.6881C147.804 28.206 148.994 27 150.529 27C152.063 27 153.223 28.206 153.223 29.6421C153.223 31.1547 152.092 31.8242 151.261 32.2841L153.163 34.267L154.458 31.6556H156.096H156.087ZM150.03 33.1989C148.81 33.8224 148.317 34.5429 148.317 35.3657C148.317 36.3724 149.104 37.1952 150.205 37.1952C151.305 37.1952 151.829 36.5718 152.316 35.5906L150.026 33.1938L150.03 33.1989ZM150.524 28.344C149.812 28.344 149.334 28.9368 149.334 29.5961C149.334 30.3729 149.911 30.9094 150.345 31.3796C151.25 30.8583 151.788 30.4802 151.788 29.6216C151.788 28.9522 151.296 28.3389 150.538 28.3389H150.524V28.344Z" fill="#1D252C"/>
<path d="M167.684 35.0744C167.002 37.1339 164.964 38.7232 162.464 38.7232C159.148 38.7232 156.707 36.0505 156.707 32.8463C156.707 29.6421 159.043 27 162.45 27C165.407 27.0153 167.166 29.1515 167.698 30.7101H165.841C165.483 29.9794 164.366 28.6047 162.434 28.5893C160.099 28.5893 158.46 30.5568 158.46 32.8463C158.46 35.1357 160.129 37.1339 162.444 37.1339C164.571 37.1339 165.597 35.4832 165.836 35.0744H167.679H167.684Z" fill="#1D252C"/>
<path d="M168.77 27.2148H170.523V32.5552L174.551 27.2148H176.409L172.126 32.8465L176.842 38.5088H174.686L170.523 33.3013V38.5088H168.77V27.2148Z" fill="#1D252C"/>
<path d="M123.578 40.4609H129.734V42.0503H125.331V45.2545H129.674V46.8285H125.331V50.1707H129.734V51.76H123.578V40.4661V40.4609Z" fill="#1D252C"/>
<path d="M134.939 51.7546H133.39L130.297 43.4502H131.92L134.167 49.7717L136.412 43.4502H138.036L134.944 51.7546H134.939Z" fill="#1D252C"/>
<path d="M146.665 51.7545H145.116V50.3032C144.548 51.4172 143.393 51.9998 142.113 51.9998C139.509 51.9998 137.965 49.925 137.965 47.6049C137.965 45.0702 139.762 43.21 142.113 43.21C143.722 43.21 144.748 44.1247 145.116 44.922V43.4553H146.665V51.7597V51.7545ZM139.509 47.6356C139.523 48.8723 140.37 50.523 142.338 50.523C143.572 50.523 144.449 49.8228 144.852 48.8723C145.032 48.489 145.121 48.0648 145.137 47.6356C145.151 47.2063 145.077 46.7822 144.898 46.3989C144.509 45.4381 143.602 44.6869 142.308 44.6869C140.614 44.6869 139.514 46.0616 139.514 47.6151V47.6305L139.509 47.6356Z" fill="#1D252C"/>
<path d="M148.328 40.4609H149.877V51.7549H148.328V40.4609Z" fill="#1D252C"/>
<path d="M158.974 51.7546H157.515V50.4718C157.127 51.3253 156.22 52.0152 154.776 51.9998C152.171 51.9846 151.504 50.0477 151.504 48.3204V43.4502H153.053V47.9524C153.053 49.4498 153.616 50.5178 155.209 50.5178C156.728 50.5025 157.426 49.5111 157.426 48.0904V43.4502H158.974V51.7546Z" fill="#1D252C"/>
<path d="M168.864 51.7545H167.316V50.3032C166.753 51.4172 165.592 51.9998 164.313 51.9998C161.708 51.9998 160.164 49.925 160.164 47.6049C160.164 45.0702 161.962 43.21 164.313 43.21C165.921 43.21 166.947 44.1247 167.316 44.922V43.4553H168.864V51.7597V51.7545ZM161.708 47.6356C161.723 48.8723 162.569 50.523 164.537 50.523C165.772 50.523 166.649 49.8228 167.051 48.8723C167.231 48.489 167.32 48.0648 167.336 47.6356C167.35 47.2063 167.276 46.7822 167.097 46.3989C166.708 45.4381 165.801 44.6869 164.507 44.6869C162.814 44.6869 161.713 46.0616 161.713 47.6151V47.6305L161.708 47.6356Z" fill="#1D252C"/>
<path d="M171.112 44.6872H169.652V43.4505H171.112V40.4609H172.661V43.4505H174.224V44.6872H172.661V51.7549H171.112V44.6872Z" fill="#1D252C"/>
<path d="M175.008 40.4609H176.557V42.1423H175.008V40.4609ZM175.008 43.4505H176.557V51.7549H175.008V43.4505Z" fill="#1D252C"/>
<path d="M177.742 47.5896C177.742 45.3768 179.336 43.21 182.055 43.21C184.774 43.21 186.368 45.3768 186.368 47.6049C186.368 49.833 184.774 51.9845 182.055 51.9845C179.336 51.9845 177.742 49.833 177.742 47.6049V47.5896ZM179.291 47.6202C179.291 49.2709 180.511 50.5076 182.06 50.5076C183.609 50.5076 184.829 49.2709 184.829 47.61C184.829 45.9492 183.609 44.7073 182.06 44.7073C180.511 44.7073 179.291 45.944 179.291 47.61V47.6254V47.6202Z" fill="#1D252C"/>
<path d="M187.574 43.4506H189.033V44.7333C189.422 43.8799 190.328 43.19 191.773 43.2053C194.362 43.236 195.045 45.1575 195.045 46.8848V51.755H193.481V47.2528C193.481 45.7554 192.918 44.6873 191.339 44.7027C189.821 44.718 189.123 45.694 189.123 47.1301V51.755H187.574V43.4506Z" fill="#1D252C"/>
<path d="M200.226 45.6172C200.226 44.9784 199.837 44.4878 199.05 44.5031C198.293 44.5031 197.875 45.0244 197.89 45.5712C197.92 46.2253 198.498 46.5319 199.364 46.7772C200.599 47.1299 201.954 47.4927 201.999 49.2814C202.029 50.9013 200.719 52.0001 199.115 52.0001C197.835 52.0001 196.246 51.2539 196.172 49.358H197.705C197.765 50.3647 198.552 50.702 199.135 50.702C199.877 50.702 200.46 50.1654 200.46 49.4653C200.445 48.6425 199.837 48.3666 198.393 47.876C197.262 47.5234 196.371 46.9766 196.356 45.7245C196.356 44.1505 197.606 43.2051 199.075 43.2051C200.191 43.2051 201.65 43.7724 201.77 45.6172H200.235H200.226Z" fill="#1D252C"/>
<path d="M178.989 27.1641C178.128 27.1641 177.48 27.8744 177.48 28.7074C177.48 29.5404 178.153 30.2507 178.984 30.2507C179.816 30.2507 180.479 29.5659 180.479 28.7074C180.479 27.8489 179.826 27.1641 178.989 27.1641ZM178.984 29.9952C178.307 29.9952 177.749 29.4229 177.749 28.7125C177.749 28.0022 178.277 27.4298 178.979 27.4298C179.682 27.4298 180.204 28.0226 180.204 28.7125C180.204 29.4024 179.656 29.9952 178.979 29.9952H178.984Z" fill="#1D252C"/>
<path d="M179.654 28.3343C179.654 27.9817 179.444 27.8232 179.021 27.8232H178.363V29.5454H178.697V28.8095H178.906L179.285 29.5454H179.654L179.255 28.7942C179.524 28.7635 179.654 28.6051 179.654 28.3343ZM179.001 28.5438H178.697V28.089H178.986C179.2 28.089 179.314 28.1401 179.314 28.3036C179.314 28.4671 179.215 28.5438 179.001 28.5438Z" fill="#1D252C"/>
<path d="M109.833 27.25H109.23V51.7492H109.833V27.25Z" fill="#0B2338"/>
<path d="M109.841 27.25H109.238V51.7492H109.841V27.25Z" fill="#0B2338"/>
<path d="M29.7428 27.25L23.9507 42.5607L18.0989 27.25H13.4723L9 51.7492H13.7711L16.6048 36.4078L22.128 51.7492H25.7137L31.2319 36.4078L34.0706 51.7492H38.9861L34.3644 27.25H29.7428Z" fill="#0B5B94"/>
<path d="M44.6559 27.25H40.1836V51.7441H44.6559V27.25Z" fill="#0B5B94"/>
<path d="M46.1172 27.25V31.231H51.3714V51.7492H55.8138V31.231H61.0679V27.25H46.1172Z" fill="#0B5B94"/>
<path d="M67.0036 51.7492H62.5312V27.25H73.1542C73.5924 27.25 74.3096 27.3931 75.3056 27.6844C76.3017 27.9859 77.2978 28.6605 78.2938 29.703C79.2846 30.7659 79.7779 32.294 79.7779 34.2921C79.7779 36.2903 79.24 37.946 78.1693 39.009C77.0936 40.0924 76.0128 40.7721 74.9221 41.0582C73.8315 41.3649 73.0247 41.5233 72.5018 41.5233L80.4405 51.7492H75.0616L67.7804 41.6409V37.2306L72.2228 37.1999H72.4619C73.0794 37.1999 73.697 36.9649 74.3096 36.4947C74.9869 35.9683 75.3206 35.2324 75.3206 34.2921C75.3206 33.4336 75.0417 32.7334 74.4839 32.1815C73.9111 31.65 73.1542 31.3843 72.2179 31.3843H66.9936V51.7492H67.0036Z" fill="#0B5B94"/>
<path d="M81.6289 27.25H95.4441V31.2259H86.1014V37.5065H95.3549V41.4824H86.1014V47.7733H95.4441V51.7492H81.6289V27.25Z" fill="#0B5B94"/>
</g>
</g>
<defs>
<clipPath id="clip0_2547_878">
<rect width="193" height="25" fill="white" transform="translate(9 27)"/>
</clipPath>
</defs>
</svg>
