<svg width="210" height="80" viewBox="0 0 210 80" fill="none" xmlns="http://www.w3.org/2000/svg">
<g clip-path="url(#clip0_2547_927)">
<path d="M168.479 30.9758C167.261 30.488 165.921 30.2441 164.337 30.2441C159.343 30.2441 155.566 32.9271 155.566 37.4392C155.566 41.9514 159.343 44.6343 164.337 44.6343C169.332 44.6343 167.261 44.3904 168.601 44.0246V40.488C167.626 40.9758 166.408 41.0977 165.19 41.0977C162.997 41.0977 160.927 39.6343 160.927 37.4392C160.927 35.2441 162.632 33.6588 164.947 33.6588C167.261 33.6588 167.139 33.9027 168.113 34.3905L168.601 30.8539L168.479 30.9758Z" fill="#363E46"/>
<path d="M189.309 30.4883H184.07V44.2687H189.309V30.4883Z" fill="#363E46"/>
<path d="M201.249 36.0978H195.401C195.524 34.5124 196.376 33.171 198.325 33.171C200.274 33.171 201.249 34.5124 201.249 36.0978ZM206 38.7807V37.927C206 33.7807 203.929 30.2441 198.325 30.2441C192.722 30.2441 190.285 32.9271 190.285 37.4392C190.285 41.9514 194.062 44.6343 199.056 44.6343C204.051 44.6343 202.954 44.3904 204.538 43.7807V40.3661C202.954 41.0977 201.371 41.4636 199.909 41.4636C197.351 41.4636 195.767 40.7319 195.401 38.7807H205.878H206Z" fill="#363E46"/>
<path d="M49.951 30.4883H44.7128V36.3419C44.7128 39.2688 43.6165 40.6102 41.4238 40.6102C39.2311 40.6102 39.1092 39.7565 39.1092 37.1956V30.4883H33.8711V39.0248C33.8711 41.9516 35.5765 44.5126 39.5965 44.5126C43.6165 44.5126 44.1037 43.6589 45.0783 41.5858V44.1467H49.8291V30.4883H49.951Z" fill="#363E46"/>
<path d="M62.8617 37.1952C62.8617 39.3903 61.6436 40.8537 59.6945 40.8537C57.7454 40.8537 56.5272 39.3903 56.5272 37.3172C56.5272 35.244 57.8672 33.6586 59.6945 33.6586C61.7653 33.6586 62.8617 35.3659 62.8617 37.0733M68.2216 37.0733C68.2216 33.7806 65.9071 30.1221 61.7653 30.1221C57.6236 30.1221 57.1363 30.9757 56.1618 32.9269V30.366H51.2891V49.6342H56.5272V42.1952C57.5018 43.9025 59.4509 44.3903 61.2781 44.3903C65.7853 44.3903 68.2216 40.9757 68.2216 36.9513" fill="#363E46"/>
<path d="M80.6512 37.1952C80.6512 39.3903 79.4327 40.8537 77.4839 40.8537C75.5345 40.8537 74.3166 39.3903 74.3166 37.3172C74.3166 35.244 75.6562 33.6586 77.4839 33.6586C79.5545 33.6586 80.6512 35.3659 80.6512 37.0733M86.0108 37.0733C86.0108 33.7806 83.6962 30.1221 79.5545 30.1221C75.4127 30.1221 74.9259 30.9757 73.9508 32.9269V30.366H69.0781V49.6342H74.3166V42.1952C75.291 43.9025 77.2398 44.3903 79.0676 44.3903C83.5745 44.3903 86.0108 40.9757 86.0108 36.9513" fill="#363E46"/>
<path d="M92.3401 34.0244H87.1016V44.2683H92.3401V34.0244Z" fill="#363E46"/>
<path d="M92.3401 30.4883H87.1016V32.8053H92.3401V30.4883Z" fill="#363E46"/>
<path d="M93.9258 44.1463H99.1636V38.2926C99.1636 35.3658 100.26 34.0244 102.453 34.0244C104.646 34.0244 104.767 34.878 104.767 37.439V44.0243H110.006V35.4878C110.006 32.561 108.3 30 104.28 30C100.26 30 99.7729 30.8537 98.7985 32.9268V30.3659H94.0475V44.1463H93.9258Z" fill="#363E46"/>
<path d="M122.432 37.0731C122.432 39.1463 120.971 40.6097 119.143 40.6097C117.316 40.6097 116.22 39.3902 116.22 37.1951C116.22 35 117.195 33.7805 119.143 33.7805C121.458 33.7805 122.432 35.4878 122.432 37.0731ZM127.427 42.5609V30.3659H122.676V32.8049C121.58 31.0976 119.753 30 117.56 30C112.931 30 110.738 33.0488 110.738 37.0731C110.738 41.0975 113.296 44.0243 117.438 44.0243C121.58 44.0243 121.214 43.2926 122.554 41.7072V42.4389C122.554 45.1219 120.849 46.3414 117.925 46.3414C115.002 46.3414 114.392 45.8536 112.809 45.2438L112.565 49.0243C113.783 49.3901 115.854 49.8779 118.291 49.8779C124.381 50.1219 127.427 48.1706 127.427 42.5609Z" fill="#363E46"/>
<path d="M139.245 36.0978H133.398C133.52 34.5124 134.372 33.171 136.322 33.171C138.271 33.171 139.245 34.5124 139.245 36.0978ZM143.874 38.7807V37.927C143.874 33.7807 141.804 30.2441 136.2 30.2441C130.597 30.2441 128.16 32.9271 128.16 37.4392C128.16 41.9514 131.936 44.6343 136.931 44.6343C141.926 44.6343 140.829 44.3904 142.412 43.7807V40.3661C140.829 41.0977 139.245 41.4636 137.784 41.4636C135.225 41.4636 133.642 40.7319 133.276 38.7807H143.753H143.874Z" fill="#363E46"/>
<path d="M155.69 30.3661C155.204 30.3661 154.594 30.2441 153.863 30.2441C151.67 30.2441 150.209 31.3417 149.356 33.171V30.61H144.605V44.3904H149.843V38.5368C149.843 35.8539 151.184 34.2685 153.62 34.2685C156.056 34.2685 154.838 34.2685 155.447 34.3905L155.69 30.488V30.3661Z" fill="#363E46"/>
<path d="M179.076 37.3172C179.076 39.0244 177.736 40.3659 176.03 40.3659C174.325 40.3659 172.985 39.0244 172.985 37.3172C172.985 35.6099 174.325 34.2684 176.03 34.2684C177.736 34.2684 179.076 35.6099 179.076 37.3172ZM183.218 37.3172C183.218 33.4147 179.929 30.1221 176.03 30.1221C172.133 30.1221 168.844 33.4147 168.844 37.3172C168.844 41.2196 172.133 44.5123 176.03 44.5123C179.929 44.5123 183.218 41.2196 183.218 37.3172Z" fill="#363E46"/>
<path d="M13.1593 35.6094H11.332V37.4386H13.1593V35.6094Z" fill="#363E46"/>
<path d="M8.53038 35.2441H6.70312V37.0734H8.53038V35.2441Z" fill="#363E46"/>
<path d="M11.6983 39.7559H9.87109V41.5851H11.6983V39.7559Z" fill="#363E46"/>
<path d="M14.7452 38.0488H12.918V39.8781H14.7452V38.0488Z" fill="#363E46"/>
<path d="M15.964 41.9512H14.1367V43.7804H15.964V41.9512Z" fill="#363E46"/>
<path d="M6.82726 41.3418H5V43.171H6.82726V41.3418Z" fill="#363E46"/>
<path d="M20.8375 37.8053H19.0102V35.9761H20.8375V37.8053ZM18.2793 40.9761H20.1066V42.8053H18.2793V40.9761ZM27.7811 36.8297L33.0193 30.4883H27.2938L23.0302 36.22V30.4883H17.7921V33.0492H19.3757V34.8785H17.7921V37.0736H15.9648V38.9029H17.7921V44.2687H23.0302V37.4395L27.172 44.2687H33.5065L27.7811 36.8297Z" fill="#363E46"/>
<path d="M16.4483 32.9268H14.6211V34.756H16.4483V32.9268Z" fill="#363E46"/>
<path d="M14.6241 30.9756H12.7969V32.8048H14.6241V30.9756Z" fill="#363E46"/>
<path d="M9.38585 31.5859H7.55859V33.4152H9.38585V31.5859Z" fill="#363E46"/>
<path d="M12.0656 34.5127H10.2383V36.3419H12.0656V34.5127Z" fill="#363E46"/>
<path d="M204.536 52.9272C204.536 51.9516 204.049 51.5857 202.344 51.0979C200.882 50.6102 200.516 50.3662 200.516 49.8784C200.516 49.3906 201.004 49.0248 201.978 49.0248C202.953 49.0248 203.319 49.2687 203.805 49.6345L204.415 49.1467C203.805 48.6589 203.075 48.537 202.1 48.537C200.639 48.537 199.786 49.1467 199.786 50.1224C199.786 51.0979 200.395 51.4638 201.978 51.9516C203.319 52.4394 203.805 52.6833 203.805 53.293C203.805 53.9028 203.197 54.3906 202.1 54.3906C201.004 54.3906 200.639 54.1467 200.029 53.6589L199.42 54.1467C200.029 54.6345 200.882 55.0004 201.978 55.0004C203.44 54.8784 204.415 54.0247 204.415 53.1711M195.035 49.1467V48.537H189.675V49.1467H191.868V54.6345H192.72V49.1467H194.913H195.035ZM185.168 52.9272C185.168 51.9516 184.68 51.5857 182.975 51.0979C181.513 50.6102 181.148 50.3662 181.148 49.8784C181.148 49.3906 181.635 49.0248 182.609 49.0248C183.584 49.0248 183.949 49.2687 184.437 49.6345L185.046 49.1467C184.437 48.6589 183.706 48.537 182.732 48.537C181.27 48.537 180.417 49.1467 180.417 50.1224C180.417 51.0979 181.026 51.4638 182.609 51.9516C183.949 52.4394 184.437 52.6833 184.437 53.293C184.437 53.9028 183.828 54.3906 182.732 54.3906C181.635 54.3906 181.27 54.1467 180.66 53.6589L180.051 54.1467C180.66 54.6345 181.513 55.0004 182.609 55.0004C184.071 54.8784 185.046 54.0247 185.046 53.1711M175.909 48.415H174.935L173.717 50.1224C173.473 50.6102 173.108 51.0979 172.864 51.4638C172.62 51.0979 172.255 50.6102 172.011 50.1224L170.793 48.415H169.819L172.377 52.0735V54.5125H173.23V52.0735L175.788 48.415H175.909ZM166.53 54.5125V53.9028H162.753V48.415H161.901V54.5125H166.53ZM154.957 52.4394H152.399L153.251 50.3662C153.495 49.8784 153.739 49.3906 153.739 49.1467C153.739 49.3906 153.982 49.8784 154.226 50.3662L154.957 52.4394ZM156.906 54.5125L154.226 48.415H153.251L150.572 54.5125H151.424L152.034 52.9272H155.201L155.81 54.5125H156.785H156.906ZM145.577 54.5125V48.415H144.846V53.415C144.846 53.293 144.481 52.8052 144.237 52.6833L140.948 48.415H140.095V54.5125H140.826V49.5126C140.826 49.6345 141.192 50.1224 141.435 50.2443L144.725 54.3906H145.577V54.5125ZM133.274 52.4394H130.716L131.568 50.3662C131.812 49.8784 132.055 49.3906 132.055 49.1467C132.055 49.3906 132.299 49.8784 132.543 50.3662L133.274 52.4394ZM134.979 54.5125L132.299 48.415H131.324L128.645 54.5125H129.497L130.106 52.9272H133.274L133.883 54.5125H134.857H134.979Z" fill="#363E46"/>
</g>
<defs>
<clipPath id="clip0_2547_927">
<rect width="201" height="25" fill="white" transform="translate(5 30)"/>
</clipPath>
</defs>
</svg>
