<svg width="106" height="80" viewBox="0 0 106 80" fill="none" xmlns="http://www.w3.org/2000/svg">
<path d="M42.4606 24.4014H37.501V55.5722H42.4606V24.4014Z" fill="#2279BC"/>
<path d="M69.205 28.8543C67.7385 27.4411 66.0053 26.3212 64.1121 25.6013C62.0056 24.8013 59.7391 24.4014 57.4993 24.4014H46.3535V55.5988H57.4993C59.7658 55.5988 62.0056 55.1989 64.1121 54.3989C66.0053 53.7057 67.7651 52.6124 69.205 51.1992C70.6182 49.8126 71.7381 48.1328 72.4847 46.2663C73.2847 44.2664 73.658 42.1333 73.658 40.0001C73.6846 37.8669 73.2847 35.7604 72.4847 33.7873C71.7648 31.9208 70.6449 30.2409 69.205 28.8543ZM68.6984 40.0534C68.6984 46.7196 64.0854 51.3592 57.4993 51.3592H51.1798V28.6944H57.4993C64.1654 28.6944 68.6984 33.254 68.6984 40.0268V40.0534Z" fill="#2279BC"/>
<path d="M102.029 46.2395V46.2928C99.709 49.4392 96.0293 51.3057 92.1096 51.2791C86.1901 51.4657 81.2305 46.7994 81.0438 40.8799C81.0438 40.6399 81.0438 40.3999 81.0438 40.16C81.0438 33.7072 85.8168 28.8009 92.1362 28.8009C96.0026 28.8542 99.6023 30.7207 101.842 33.8405L105.309 30.7207C103.922 28.6942 102.029 27.041 99.8156 25.9211C97.3892 24.6679 94.7227 24.0013 92.0029 24.0013C87.7899 23.9479 83.7369 25.5745 80.6972 28.4809C79.204 29.9475 78.0307 31.6807 77.2308 33.6005C76.3775 35.6803 75.9242 37.8935 75.9509 40.16C75.9242 42.3731 76.3509 44.5863 77.2041 46.6394C77.9774 48.5326 79.1506 50.2125 80.6172 51.6257C83.6569 54.4788 87.6833 56.052 91.8696 55.9987C94.6427 55.9987 97.3892 55.3587 99.869 54.1055C102.082 52.9589 104.002 51.3324 105.469 49.3059L102.029 46.2395Z" fill="#2279BC"/>
<path d="M5.90315 52.5591C7.44969 53.839 9.20955 54.8256 11.1027 55.4655C11.1827 55.4922 11.2894 55.5189 11.3694 55.4922H21.3152C21.3952 55.4922 21.5019 55.4922 21.5819 55.4655C22.9151 55.0122 24.1683 54.3723 25.3416 53.599C25.4749 53.4924 25.5282 53.3057 25.4216 53.1724C25.3682 53.0924 25.2616 53.0391 25.1549 53.0391H15.4757C14.7291 53.0391 14.0092 52.6391 13.6092 51.9992C13.5292 51.8925 13.3959 51.8125 13.2626 51.8125H6.14313C5.92982 51.8125 5.74316 51.9992 5.74316 52.2125C5.74316 52.3458 5.79649 52.4524 5.90315 52.5591Z" fill="#2279BC"/>
<path d="M26.7284 27.4409C25.2352 26.1877 23.502 25.2278 21.6621 24.5878C21.5021 24.5345 21.3155 24.5078 21.1288 24.5078H11.4763C11.2896 24.5078 11.103 24.5345 10.943 24.5878C9.66308 25.0411 8.46318 25.6544 7.31661 26.401C7.18328 26.481 7.12995 26.6676 7.20995 26.801C7.26328 26.881 7.34327 26.9343 7.44993 26.9343H17.1558C17.9291 26.9343 18.649 27.3343 19.049 28.0009C19.129 28.1075 19.2623 28.1875 19.3956 28.1875H26.4617C26.7017 28.1875 26.8884 28.0009 26.8617 27.7609C26.8884 27.6276 26.835 27.5209 26.7284 27.4409Z" fill="#2279BC"/>
<path d="M32.6212 39.36C32.5945 39.04 32.3278 38.7734 32.0079 38.7734H25.715C25.3951 38.7734 25.1018 38.5867 24.9684 38.2934C24.8618 38.0801 24.6485 37.9468 24.4085 37.9468H0.863725C0.437093 37.9468 0.0904543 38.2668 0.0637898 38.6934C0.0104608 39.12 -0.0162039 39.5466 0.0104606 39.9733V40.6132C0.0104606 40.9332 0.277105 41.1998 0.623744 41.1998H6.94323C7.26321 41.1998 7.55652 41.3865 7.68984 41.6798C7.7965 41.8931 8.00981 42.0264 8.24979 42.0264H31.7679C32.1945 42.0264 32.5412 41.7065 32.5678 41.2798C32.5678 40.8532 32.6212 40.4266 32.6212 39.9999C32.6212 39.7866 32.6212 39.5733 32.6212 39.36Z" fill="#2279BC"/>
<path d="M21.8222 33.8936C22.5155 33.8936 23.1821 34.2402 23.5554 34.8269C23.6887 35.0135 23.8754 35.0935 24.0887 35.0935H31.0481C31.3948 35.0935 31.6614 34.8002 31.6348 34.4802C31.6348 34.4269 31.6348 34.3469 31.6348 34.2936C31.2615 33.2803 30.7815 32.3204 30.2215 31.4138C30.0615 31.1738 29.8216 31.0138 29.5283 31.0405H3.13039C2.83708 31.0138 2.54377 31.1738 2.38378 31.4138C2.03714 31.9738 1.71717 32.5604 1.45052 33.1737C1.34387 33.4136 1.45052 33.7336 1.6905 33.8403C1.7705 33.8669 1.82383 33.8936 1.90382 33.8936H21.8222Z" fill="#2279BC"/>
<path d="M10.7829 46.1328C10.0897 46.1328 9.44972 45.7595 9.07642 45.1729C8.96976 45.0129 8.75644 44.9062 8.56979 44.9062H1.61035C1.26372 44.9062 0.99707 45.1729 0.99707 45.5195C0.99707 45.5995 0.99707 45.6795 1.02373 45.7329C1.39704 46.7194 1.85034 47.6794 2.38363 48.586C2.51695 48.8259 2.78359 48.9593 3.0769 48.9593H29.4748C29.7681 48.9593 30.0347 48.8259 30.1681 48.586C30.5147 48.026 30.8347 47.4394 31.1013 46.8261C31.208 46.5595 31.1013 46.2661 30.8347 46.1595C30.7813 46.1328 30.7013 46.1328 30.648 46.1328H10.7829Z" fill="#2279BC"/>
</svg>
