<svg width="210" height="80" viewBox="0 0 210 80" fill="none" xmlns="http://www.w3.org/2000/svg">
<path d="M18.524 29.3467L13.3467 42.6713L8.12533 29.3467H3.99667L0 50.6647H4.26067L6.79067 37.3107L11.726 50.6647H14.9233L19.8513 37.3107L22.3887 50.6647H26.774L22.6527 29.3467H18.524Z" fill="#231F20"/>
<path d="M31.8414 29.3467H27.8447V50.6647H31.8414V29.3467Z" fill="#231F20"/>
<path d="M33.1465 32.808H37.8325V50.6647H41.7998V32.808H46.4932V29.3467H33.1465V32.808Z" fill="#231F20"/>
<path d="M58.4615 41.3587C59.5793 41.0338 60.5913 40.419 61.3948 39.5767C61.9089 39.0301 62.3045 38.3831 62.5569 37.6765C62.8093 36.9698 62.913 36.2186 62.8615 35.47C62.9584 34.0177 62.4818 32.5854 61.5342 31.4807C60.7901 30.674 59.8505 30.0728 58.8062 29.7353C58.186 29.5297 57.5434 29.3992 56.8922 29.3467H47.4028V50.6647H51.3995V32.94H56.0635C56.8067 32.9191 57.5302 33.1812 58.0875 33.6733C58.331 33.9108 58.5221 34.1966 58.6484 34.5123C58.7747 34.8281 58.8334 35.1668 58.8208 35.5067C58.8332 35.8687 58.7592 36.2285 58.6049 36.5562C58.4506 36.884 58.2204 37.1702 57.9335 37.3913C57.4622 37.7694 56.8802 37.9832 56.2762 38H56.0635H52.0962V41.8353L58.5935 50.6353H63.3968L56.3055 41.762C57.0379 41.7159 57.762 41.5805 58.4615 41.3587Z" fill="#231F20"/>
<path d="M63.9248 50.6647H76.2595V47.2033H67.9215V41.7327H76.1861V38.2713H67.9215V32.808H76.2595V29.3467H63.9248V50.6647Z" fill="#231F20"/>
<path d="M110.733 29.4058L102.014 50.6064H105.681L107.631 45.5904H116.681L118.69 50.6064H122.357L113.791 29.4058H110.733ZM108.533 42.8698L112.112 33.3364L115.779 42.8698H108.533Z" fill="#231F20"/>
<path d="M119.489 32.3831H124.359V50.6064H127.739V32.3831H132.609V29.4058H119.489V32.3831Z" fill="#231F20"/>
<path d="M146.725 29.4058H133.606V32.3831H138.475V50.6064H141.856V32.3831H146.725V29.4058Z" fill="#231F20"/>
<path d="M164.487 37.7435H161.333L158.84 42.6422L155.173 38.9168C156.772 38.0588 158.95 36.7975 158.95 33.9595C158.94 33.2925 158.798 32.6341 158.532 32.0225C158.266 31.4109 157.881 30.8584 157.399 30.3971C156.917 29.9358 156.348 29.5749 155.726 29.3354C155.103 29.0959 154.439 28.9826 153.773 29.0022C153.097 28.9876 152.424 29.1067 151.795 29.3526C151.165 29.5986 150.59 29.9665 150.102 30.4353C149.615 30.9041 149.225 31.4646 148.955 32.0844C148.685 32.7043 148.541 33.3715 148.529 34.0475C148.588 35.8808 149.534 37.2522 150.964 38.7702C149.079 39.7748 146.271 41.5495 146.271 44.9595C146.271 48.1715 148.874 51.0022 153.061 51.0022C156.471 51.0022 158.099 49.2862 159.243 47.0788L163.027 51.0022L165.088 48.9928L160.849 44.6662L164.487 37.7435ZM153.773 31.5248C154.092 31.5158 154.41 31.5717 154.707 31.6892C155.004 31.8066 155.274 31.9831 155.501 32.2079C155.728 32.4328 155.907 32.7014 156.027 32.9974C156.147 33.2934 156.206 33.6107 156.2 33.9302C156.2 35.5362 155.173 36.2475 153.421 37.2228C152.592 36.3355 151.477 35.3308 151.477 33.8715C151.469 33.5655 151.523 33.2611 151.635 32.9762C151.747 32.6913 151.915 32.4317 152.129 32.2129C152.343 31.9941 152.599 31.8205 152.881 31.7023C153.163 31.5841 153.466 31.5237 153.773 31.5248ZM153.171 48.1422C152.702 48.1679 152.232 48.0983 151.791 47.9375C151.349 47.7768 150.945 47.5281 150.602 47.2066C150.26 46.8852 149.986 46.4975 149.797 46.0672C149.608 45.6368 149.509 45.1727 149.504 44.7028C149.504 43.1555 150.451 41.8062 152.797 40.6328L157.197 45.1355C156.295 46.9688 155.29 48.1422 153.171 48.1422Z" fill="#231F20"/>
<path d="M176.733 31.9797C178.09 31.9851 179.421 32.3581 180.583 33.0593C181.745 33.7605 182.696 34.7635 183.333 35.9617H186.912C186.131 33.8994 184.737 32.1263 182.917 30.8818C181.096 29.6372 178.938 28.9813 176.733 29.0024C175.279 28.9788 173.836 29.2468 172.487 29.7905C171.139 30.3342 169.913 31.1426 168.882 32.168C167.851 33.1934 167.036 34.415 166.485 35.7606C165.934 37.1062 165.659 38.5485 165.674 40.0024C165.666 41.4569 165.947 42.8985 166.502 44.2429C167.057 45.5873 167.875 46.8074 168.908 47.8317C169.94 48.8561 171.167 49.6642 172.516 50.2086C173.864 50.7531 175.308 51.0229 176.762 51.0024C178.942 51.0465 181.081 50.4116 182.884 49.1857C184.687 47.9598 186.064 46.2036 186.824 44.1604H183.267C182.611 45.32 181.663 46.2872 180.516 46.9654C179.37 47.6436 178.065 48.009 176.733 48.0251C172.267 48.0251 169.055 44.3584 169.055 39.9584C169.07 35.6757 172.223 31.9797 176.733 31.9797Z" fill="#231F20"/>
<path d="M203.251 29.4058H199.665L191.906 39.4304V29.4058H188.525V50.6064H191.906V40.8384L199.929 50.6064H204.079L195.001 39.9731L203.251 29.4058Z" fill="#231F20"/>
<path d="M89.2907 29.127H88.7407V50.8776H89.2907V29.127Z" fill="#231F20"/>
<path d="M89.2907 29.127H88.7407V50.8776H89.2907V29.127Z" fill="#231F20"/>
<path d="M207.108 29.1929C207.575 29.1944 208.03 29.3341 208.418 29.5944C208.805 29.8548 209.107 30.2241 209.284 30.6557C209.462 31.0873 209.508 31.5618 209.416 32.0194C209.324 32.477 209.098 32.897 208.768 33.2265C208.437 33.556 208.016 33.7802 207.559 33.8707C207.101 33.9613 206.626 33.9141 206.195 33.7351C205.764 33.5562 205.396 33.2535 205.137 32.8654C204.878 32.4772 204.739 32.021 204.739 31.5543C204.738 31.2433 204.799 30.9352 204.918 30.6478C205.037 30.3603 205.211 30.0993 205.431 29.8798C205.652 29.6602 205.913 29.4865 206.201 29.3686C206.489 29.2507 206.797 29.191 207.108 29.1929ZM207.108 29.5889C206.852 29.5889 206.598 29.6399 206.361 29.7392C206.125 29.8384 205.911 29.9837 205.731 30.1667C205.551 30.3497 205.41 30.5667 205.315 30.8049C205.221 31.0432 205.174 31.2979 205.179 31.5543C205.179 31.8075 205.229 32.0583 205.326 32.2923C205.423 32.5263 205.565 32.7389 205.744 32.918C205.923 33.0971 206.136 33.2392 206.37 33.3361C206.604 33.433 206.855 33.4829 207.108 33.4829C207.361 33.4829 207.612 33.433 207.846 33.3361C208.08 33.2392 208.293 33.0971 208.472 32.918C208.651 32.7389 208.793 32.5263 208.89 32.2923C208.987 32.0583 209.037 31.8075 209.037 31.5543C209.04 31.2976 208.993 31.0426 208.898 30.8044C208.802 30.5661 208.66 30.3492 208.48 30.1663C208.3 29.9834 208.085 29.8382 207.848 29.739C207.611 29.6399 207.357 29.5889 207.101 29.5889H207.108Z" fill="#231F20"/>
<path d="M208.149 30.9751C208.149 30.4324 207.819 30.1904 207.159 30.1904H206.125V32.8304H206.646V31.7084H206.976L207.57 32.8304H208.149L207.533 31.6791C207.621 31.6765 207.708 31.6559 207.787 31.6185C207.866 31.581 207.937 31.5276 207.995 31.4615C208.053 31.3954 208.096 31.3181 208.123 31.2344C208.15 31.1507 208.159 31.0624 208.149 30.9751ZM207.123 31.2978H206.646V30.6011H207.101C207.438 30.6011 207.614 30.6744 207.614 30.9311C207.614 31.1878 207.453 31.2978 207.123 31.2978Z" fill="#231F20"/>
</svg>
