<svg width="113" height="80" viewBox="0 0 113 80" fill="none" xmlns="http://www.w3.org/2000/svg">
<path d="M111.929 35.7271L111.604 39.6157H110.016C107.481 39.6157 106.163 41.6482 106.163 43.5961V52.3788H101.669V35.7271H105.926L106.022 37.8055C106.916 36.3802 108.478 35.7271 110.406 35.7271H111.929ZM80.7728 52.3787H76.2748V43.5758C76.2748 41.7323 76.1156 39.412 73.5226 39.412C71.0255 39.412 70.0306 41.2142 70.0306 43.3127V52.3787H65.5342V35.7269H69.703L69.7983 37.8557C70.6918 36.4305 72.356 35.3207 74.8108 35.3207C79.3425 35.3207 80.7728 38.5562 80.7728 41.9233V52.3787ZM63.5729 48.4889L63.2584 52.2777C62.1799 52.567 61.2224 52.6708 60.0638 52.6708C55.8259 52.6708 54.5967 50.7275 54.5967 46.8217V31.0313H59.0941V35.7273H63.5694L63.2584 39.6154H59.0941V46.4836C59.0941 48.0509 59.524 48.8976 61.1317 48.8976C61.8307 48.8976 62.6083 48.8134 63.5729 48.4889ZM53.1199 35.7271L52.7717 39.6157H51.5495C49.0191 39.6157 47.7607 41.6457 47.7607 43.5961V52.3788H43.2627V35.7271H47.5213L47.61 37.8055C48.5081 36.3802 50.0709 35.7271 52.0006 35.7271H53.1199ZM22.9665 50.5339C19.916 52.1658 16.869 53.1072 12.8442 52.9902C5.38293 52.7625 0 48.1294 0 40.3037C0 32.5123 5.43485 27.5341 12.8478 27.4172C16.6054 27.3597 19.9679 28.3132 22.5961 30.6325L19.4302 33.8353C17.8038 32.4488 15.411 31.6384 12.5514 31.768C7.88616 31.9852 5.075 35.3754 5.01301 40.0366C4.95203 45.0869 8.04894 48.5674 12.8901 48.6944C15.1681 48.7513 16.7999 48.4454 18.2121 47.8114V42.6492H13.1804L13.5201 38.4154H22.9665V50.5339ZM99.6607 45.6354H87.33C87.6813 47.7632 89.3539 49.0432 91.4369 49.1012C93.4618 49.1561 94.5947 48.5443 96.0759 47.0445L99.0105 49.2821C96.9251 51.8509 94.4224 52.7857 91.5714 52.7857C86.5569 52.7857 82.8003 49.2796 82.8003 44.0524C82.8003 38.8307 86.5382 35.3206 91.3839 35.3206C96.7245 35.3206 99.6607 38.5561 99.6607 44.2994V45.6354ZM95.1552 42.1539C95.0171 40.0503 93.4412 38.7204 91.2705 38.805C89.0858 38.8877 87.6314 40.3104 87.33 42.1539H95.1552ZM40.4313 41.4747V52.3786H36.466L36.3678 50.7367C35.1512 52.2436 33.1761 52.7858 31.1426 52.7858C28.0804 52.7858 25.1871 51.2759 25.1267 47.7592C25.0354 42.2317 31.3477 41.8391 35.3119 41.8391H36.1042V41.6203C36.1042 39.7924 34.8947 38.8051 32.6172 38.8051C30.9823 38.8051 29.3686 39.4608 28.1752 40.5796L25.5802 37.9433C27.9363 36.0333 30.3876 35.3207 32.9992 35.3207C38.1574 35.3207 40.4313 37.7045 40.4313 41.4747ZM36.1042 45.1169H35.4788C33.3495 45.1214 29.6095 45.2263 29.6236 47.4528C29.6438 50.5895 36.1042 49.5927 36.1042 45.8099V45.1169ZM108.42 50.4417C108.42 49.3818 109.22 48.583 110.246 48.583C111.259 48.583 112.06 49.3818 112.06 50.4417C112.06 51.5202 111.259 52.3165 110.246 52.3165C109.22 52.3165 108.42 51.5202 108.42 50.4417ZM110.246 52.6889C111.467 52.6889 112.508 51.7404 112.508 50.4417C112.508 49.156 111.467 48.2096 110.246 48.2096C109.013 48.2096 107.971 49.156 107.971 50.4417C107.971 51.7404 109.013 52.6889 110.246 52.6889ZM109.771 50.6211H110.222L110.902 51.7404H111.342L110.607 50.6029C110.987 50.5566 111.277 50.353 111.277 49.8908C111.277 49.3818 110.975 49.156 110.364 49.156H109.381V51.7404H109.771V50.6211ZM109.771 50.2879V49.4892H110.304C110.577 49.4892 110.868 49.5481 110.868 49.8682C110.868 50.2648 110.571 50.2879 110.241 50.2879H109.771Z" fill="#182954"/>
</svg>
