<svg width="114" height="80" viewBox="0 0 114 80" fill="none" xmlns="http://www.w3.org/2000/svg">
<mask id="mask0_25041_3327" style="mask-type:luminance" maskUnits="userSpaceOnUse" x="0" y="22" width="114" height="36">
<path d="M113.333 22H0V57.2332H113.333V22Z" fill="white"/>
</mask>
<g mask="url(#mask0_25041_3327)">
<path d="M99.8621 29.1575C99.6325 30.2508 99.5145 31.3 99.1868 32.2744C98.7141 33.6834 97.9484 34.9567 96.7229 35.8429C94.7991 37.2315 92.6693 37.5473 90.4414 36.746C88.6926 36.1145 87.8423 34.7123 87.4777 32.9263C86.9175 30.1897 89.1618 27.3919 90.9205 26.5092C91.8389 26.0474 92.7938 25.8233 93.7897 26.3224C93.8743 26.3632 94.0663 26.2987 94.1473 26.2206C94.6235 25.7588 95.0822 25.2801 95.5449 24.8081C96.0746 24.2649 96.3012 23.6537 96.0611 22.8796C95.9131 22.3974 96.0781 22.1768 96.5203 22.0511C97.155 21.8746 97.4956 22.1326 97.5162 22.7947C97.5332 23.3142 97.3001 23.7454 96.9795 24.0951C96.0546 25.1001 95.1027 26.0814 94.1438 27.0592C92.7163 28.5192 91.2717 29.9622 89.8406 31.4222C89.675 31.5919 89.5365 31.7922 89.4049 31.9926C89.0068 32.6071 89.0403 33.3439 89.486 33.9246C90.6305 35.4117 92.1795 35.8667 93.9212 35.4524C97.03 34.7123 98.7752 32.7124 99.0453 29.582C99.0758 29.222 99.0958 28.7569 98.9067 28.509C98.5761 28.088 98.0224 27.925 97.4686 27.9216C96.7328 27.9148 96.2132 28.38 96.1086 29.1066C96.0581 29.4529 96.3312 29.7992 96.8209 29.9928C97.0975 30.1014 97.3811 30.1897 97.4351 30.553C97.5027 31.0215 97.1856 31.4018 96.6624 31.4663C95.7674 31.575 95.0182 30.8212 95.1603 29.8366C95.2343 29.3273 95.4639 28.8044 95.7475 28.3732C96.5302 27.1916 98.161 26.516 99.3354 26.8046C100.024 26.9743 100.517 27.4293 100.976 27.9386C101.297 28.2917 101.627 28.6448 101.985 28.9572C102.249 29.1847 102.573 29.3001 102.917 29.076C103.247 28.8587 103.309 28.5396 103.082 28.2136C102.961 28.0404 102.826 27.8741 102.738 27.6839C102.579 27.3546 102.549 27.0253 102.91 26.7876C103.224 26.5805 103.68 26.611 103.886 26.9506C104.054 27.2324 104.189 27.6126 104.152 27.9284C104.031 29.0251 102.772 30.1319 101.675 30.1965C101.118 30.2304 100.655 30.0369 100.277 29.6329C100.125 29.4733 99.9901 29.2967 99.8657 29.1507L99.8621 29.1575ZM88.6627 31.7108C88.7331 31.7651 88.8007 31.8194 88.8717 31.8772C88.9122 31.7719 88.9293 31.6429 88.9968 31.5614C89.6275 30.8246 90.2693 30.0946 90.9106 29.368C91.2917 28.9334 91.6833 28.5124 92.058 28.0744C92.3516 27.7349 92.2946 27.5142 91.8759 27.3308C91.2482 27.0524 90.681 27.2969 90.2388 27.6873C89.0303 28.7501 88.5746 30.1353 88.6627 31.7176V31.7108Z" fill="#113053"/>
<path d="M31.9112 35.6631C31.7964 35.7412 31.6816 35.8872 31.5635 35.8906C30.9019 35.9075 30.2403 35.9144 29.5821 35.8702C29.41 35.86 29.2007 35.6937 29.0893 35.5375C28.134 34.2269 27.1991 32.9027 26.2607 31.5786C25.994 31.1983 25.1434 30.9538 24.735 31.1745C24.6641 31.2118 24.6067 31.3511 24.6067 31.4461C24.6 32.3798 24.5932 33.3136 24.6168 34.2472C24.6405 35.1233 24.8464 35.3304 25.6835 35.4899C25.8118 35.5137 25.9265 35.6291 26.0481 35.7038C25.9232 35.765 25.8016 35.8804 25.6768 35.8838C24.4818 35.8974 23.287 35.9008 22.092 35.8838C21.9806 35.8838 21.8726 35.748 21.7646 35.6767C21.8659 35.6122 21.9638 35.5035 22.0684 35.4933C22.7165 35.4254 23.1013 35.0383 23.1047 34.3899C23.1114 32.0403 23.1114 29.6941 23.1047 27.3446C23.1047 26.6757 22.8178 26.3973 22.1528 26.2785C22.0144 26.2547 21.8997 26.0849 21.7714 25.9797C21.8962 25.922 22.0178 25.8133 22.1427 25.8133C23.5334 25.7997 24.9274 25.759 26.3181 25.8235C26.9628 25.854 27.621 26.0306 28.2319 26.2547C29.0319 26.5467 29.5011 27.1918 29.5754 28.0542C29.6563 28.9981 29.3897 29.8198 28.5425 30.3562C28.2252 30.5566 27.891 30.7331 27.5264 30.9402C27.6345 31.093 27.7222 31.2288 27.8201 31.3612C28.5594 32.3594 29.2952 33.3577 30.0378 34.3525C30.4901 34.9602 31.074 35.3745 31.8335 35.5171C31.8605 35.5646 31.8875 35.6156 31.9145 35.6631H31.9112ZM24.6033 28.4447C24.6033 28.4447 24.6033 28.4447 24.6067 28.4447C24.6067 28.7401 24.6067 29.0388 24.6067 29.3342C24.6067 30.7331 24.7282 30.8248 26.1223 30.5566C27.0472 30.3766 27.7357 29.684 27.8775 28.791C28.0261 27.8607 27.6649 27.0933 26.8548 26.6621C26.2033 26.3158 25.4978 26.3565 24.7958 26.4177C24.7215 26.4245 24.6101 26.635 24.6067 26.7538C24.5865 27.3174 24.5966 27.881 24.5966 28.448L24.6033 28.4447Z" fill="#113053"/>
<path d="M101.107 47.3227V46.9526C101.921 46.9153 102.714 46.8711 103.507 46.8541C103.635 46.8541 103.801 46.9356 103.896 47.0341C105.36 48.5756 106.815 50.1272 108.277 51.6721C109.04 52.4802 109.806 53.2882 110.572 54.0929C110.714 54.2424 110.866 54.3748 111.068 54.5683C111.098 54.4019 111.125 54.3136 111.125 54.2253C111.125 52.4564 111.125 50.6908 111.119 48.9219C111.115 47.8659 110.727 47.4551 109.674 47.3328C109.546 47.3193 109.434 47.1665 109.316 47.0748C109.448 47.0035 109.576 46.8711 109.708 46.8711C110.731 46.8541 111.753 46.8711 112.773 46.8541C113.087 46.8507 113.276 46.9119 113.191 47.2752C113.168 47.2921 113.147 47.3227 113.124 47.3261C112.111 47.4381 111.996 47.5434 111.845 48.5382C111.801 48.8166 111.78 49.0984 111.78 49.3802C111.774 51.7841 111.78 54.188 111.77 56.5919C111.77 56.7888 111.703 56.9857 111.669 57.1827C111.625 57.1996 111.578 57.2132 111.534 57.2302L103.726 49.0984C103.686 49.1222 103.642 49.1459 103.602 49.1663C103.602 49.3565 103.602 49.5466 103.602 49.7367C103.602 51.3495 103.598 52.9589 103.602 54.5717C103.602 54.8127 103.602 55.0538 103.635 55.2915C103.76 56.1369 104.078 56.4357 104.921 56.5307C104.962 56.5342 105.016 56.5206 105.046 56.541C105.165 56.6157 105.276 56.7039 105.387 56.7854C105.273 56.8635 105.168 56.9891 105.046 57.0095C104.783 57.0503 104.513 57.04 104.246 57.04C103.419 57.04 102.596 57.0299 101.769 57.0231C101.685 57.0231 101.577 57.0503 101.523 57.0061C101.438 56.9416 101.351 56.8363 101.34 56.7379C101.334 56.6801 101.462 56.5579 101.543 56.541C102.63 56.3304 102.846 56.232 102.893 55.0504C102.977 52.9623 102.957 50.8674 102.876 48.7793C102.839 47.7708 102.396 47.4551 101.38 47.3431C101.299 47.3328 101.218 47.3261 101.114 47.3193L101.107 47.3227Z" fill="#113053"/>
<path d="M46.9722 30.7669C47.0768 34.118 44.3056 36.1111 41.5478 36.1348C38.591 36.1586 36.1067 33.6868 36.1202 30.8313C36.1337 27.7925 38.7024 25.6026 41.5613 25.606C44.9064 25.6127 47.0633 28.2339 46.9722 30.7669ZM45.2507 31.2796C45.217 29.7686 44.768 28.3561 43.6947 27.195C43.1006 26.5533 42.358 26.1594 41.4702 26.1322C39.9175 26.0847 38.6416 27.0388 38.1623 28.6346C37.5379 30.7261 37.9058 32.6648 39.2188 34.3896C40.4171 35.9684 42.709 36.0431 44.0625 34.5968C44.9199 33.68 45.2035 32.5494 45.2541 31.2761L45.2507 31.2796Z" fill="#113053"/>
<path d="M16.6409 47.3324C16.489 47.3426 16.3642 47.3426 16.2393 47.3562C15.6418 47.4173 15.3346 47.7127 15.3312 48.3103C15.3177 50.1064 15.2941 51.9025 15.3447 53.6952C15.3583 54.2113 15.5507 54.7478 15.7633 55.2299C16.0738 55.9259 16.6477 56.3674 17.4173 56.4522C17.9438 56.5099 18.4907 56.5711 19.0071 56.4964C20.0029 56.3504 20.7522 55.651 20.7927 54.6324C20.8805 52.5171 20.867 50.3984 20.8231 48.2831C20.8062 47.5225 20.6104 47.4411 19.8475 47.3358C19.7092 47.3154 19.591 47.1559 19.4628 47.0608C19.6181 47.0031 19.7699 46.8944 19.9252 46.8911C20.7657 46.8774 21.6062 46.8911 22.4466 46.8911C22.504 46.8911 22.5648 46.8605 22.6121 46.8774C22.7606 46.9284 22.899 46.9929 23.0441 47.054C22.9259 47.1525 22.8179 47.2917 22.6829 47.3358C22.0281 47.5531 21.8323 47.7874 21.8188 48.5072C21.7817 50.2999 21.7513 52.096 21.7311 53.8888C21.7142 55.4846 20.715 56.7103 19.1522 57.0464C18.1126 57.2705 17.0831 57.2603 16.0738 56.9479C14.7068 56.5236 13.9338 55.5525 13.8292 54.1332C13.7347 52.8532 13.7516 51.563 13.728 50.2795C13.7145 49.6446 13.7347 49.0063 13.7145 48.3714C13.6942 47.6889 13.4545 47.4547 12.7862 47.3358C12.6343 47.3087 12.5027 47.1525 12.3643 47.054C12.533 46.9929 12.7018 46.8808 12.8706 46.8774C13.9912 46.8605 15.1119 46.8774 16.2325 46.8605C16.5599 46.8571 16.7253 46.9352 16.6342 47.3324H16.6409Z" fill="#113053"/>
<path d="M88.5306 56.5304C88.6151 56.8767 88.5541 57.0397 88.1865 57.0362C87.1905 57.0193 86.1981 57.0227 85.2028 57.0295C84.8581 57.0295 84.8417 56.8529 84.9156 56.5372C85.78 56.5915 86.1476 55.9939 86.4178 55.2843C87.2921 52.9925 88.163 50.704 89.0338 48.4122C89.0943 48.256 89.1959 48.0726 89.1618 47.9267C88.9563 46.9963 89.7256 46.8096 90.3063 46.3716C90.4144 46.5923 90.5224 46.7791 90.5999 46.9794C91.6798 49.8416 92.7603 52.7005 93.8267 55.5695C94.0328 56.1195 94.3399 56.4896 94.9542 56.5575C95.0687 56.5711 95.1632 56.7307 95.2683 56.8224C95.1532 56.8869 95.0452 56.9752 94.9236 57.0091C94.8056 57.0431 94.6741 57.0227 94.5455 57.0227C93.5936 57.0227 92.6388 57.0227 91.6869 57.0159C91.5148 57.0159 91.2952 57.06 91.2952 56.7681C91.2952 56.4693 91.5248 56.5406 91.6904 56.5304C92.3551 56.4998 92.4802 56.3198 92.267 55.6781C92.0345 54.9821 91.7814 54.2929 91.5718 53.5934C91.4743 53.2743 91.3017 53.186 90.9916 53.1894C90.0767 53.1996 89.1654 53.1894 88.2505 53.1656C87.9909 53.1588 87.8623 53.2607 87.7983 53.4984C87.6227 54.1639 87.4201 54.826 87.2651 55.4982C87.0995 56.2112 87.3391 56.4998 88.072 56.5202C88.2235 56.5236 88.3755 56.5202 88.5306 56.5202V56.5304ZM89.658 48.548C89.614 48.5446 89.5705 48.5378 89.5265 48.5344C89.0638 49.862 88.6051 51.1861 88.1289 52.5511H91.1366C90.6269 51.176 90.1407 49.862 89.658 48.548Z" fill="#113053"/>
<path d="M71.0795 47.319C70.9614 46.9523 71.093 46.847 71.4377 46.8538C72.5176 46.8708 73.5981 46.864 74.6744 46.8674C74.7455 46.8674 74.833 46.8402 74.8805 46.8708C74.9851 46.9353 75.0661 47.0337 75.1571 47.1187C75.0591 47.1934 74.9716 47.3224 74.8635 47.3393C74.1342 47.4412 74.0297 47.5533 74.2898 48.2527C74.7625 49.5225 75.2787 50.772 75.7784 52.0316C76.1325 52.9246 76.4801 53.8176 76.8348 54.7072C76.8853 54.8362 76.9464 54.9618 77.0474 55.1961C77.2365 54.7411 77.3915 54.3778 77.5371 54.0111C78.1414 52.4764 78.745 50.9417 79.3358 49.4003C79.4708 49.0472 79.5589 48.6737 79.6499 48.3036C79.7815 47.7705 79.5589 47.4446 79.0052 47.3495C78.8096 47.3156 78.5565 47.3292 78.634 47.044C78.6575 46.9625 78.9206 46.9047 79.0762 46.9047C79.876 46.8946 80.6729 46.9047 81.4727 46.9149C81.5842 46.9149 81.6952 46.9896 81.8068 47.0303C81.7258 47.1424 81.6617 47.3258 81.5602 47.3495C81.044 47.4718 80.7974 47.8418 80.6118 48.29C79.4473 51.0878 78.2794 53.8889 77.1114 56.6832C77.0139 56.9175 76.9869 57.2197 76.6017 57.1959C76.2576 57.1756 76.1836 56.9209 76.0785 56.6731C74.9246 53.9296 73.7766 51.1862 72.6086 48.4462C72.251 47.6076 71.9439 47.4072 71.066 47.319H71.0795Z" fill="#113053"/>
<path d="M13.7347 29.1408C13.8596 30.2171 13.7955 31.2934 13.8056 32.3697C13.7414 32.3833 13.6773 32.4003 13.6132 32.4138C13.5356 32.2373 13.441 32.0675 13.3802 31.8876C13.1609 31.2255 12.9347 31.0523 12.2461 31.0489C11.6689 31.0489 11.0917 31.0591 10.5179 31.0455C10.2647 31.0387 10.1601 31.1304 10.1635 31.3884C10.1736 32.4206 10.1635 33.4528 10.1838 34.4849C10.1973 35.0723 10.4572 35.344 11.0344 35.4696C11.1423 35.4934 11.2672 35.4832 11.3618 35.5307C11.4327 35.5647 11.4968 35.6597 11.517 35.7378C11.5238 35.7718 11.4124 35.8601 11.3449 35.8771C11.2234 35.9042 11.0951 35.8974 10.9668 35.8974C9.84283 35.8974 8.71883 35.9042 7.59477 35.8906C7.48003 35.8906 7.36529 35.765 7.25049 35.6971C7.36188 35.6292 7.46993 35.5103 7.58802 35.5002C8.30701 35.4322 8.58377 35.2048 8.59052 34.468C8.61078 32.0369 8.60743 29.6093 8.59052 27.1783C8.58718 26.5603 8.34753 26.3566 7.73994 26.2989C7.62854 26.2887 7.50029 26.2989 7.41591 26.2479C7.33828 26.197 7.2775 26.0748 7.27075 25.9797C7.27075 25.9322 7.39565 25.8575 7.47328 25.8235C7.53406 25.7964 7.61169 25.8133 7.68256 25.8133C9.9036 25.8133 12.1246 25.8099 14.3456 25.8099C14.4267 25.8099 14.5076 25.8235 14.6494 25.8371C14.6798 26.4652 14.7169 27.0798 14.7304 27.6943C14.7304 27.7962 14.6393 27.9015 14.5887 28.0033C14.484 27.9218 14.3794 27.8471 14.2815 27.7623C14.2545 27.7385 14.2545 27.6842 14.241 27.6434C14.0249 26.8557 13.4579 26.489 12.6984 26.4143C11.9727 26.343 11.2436 26.3396 10.5145 26.2955C10.2546 26.2785 10.1703 26.3905 10.1703 26.6418C10.1703 27.786 10.1568 28.9337 10.1703 30.0779C10.1703 30.1831 10.3188 30.3766 10.3964 30.3766C11.112 30.3766 11.8242 30.3359 12.5398 30.3223C12.9921 30.3121 13.2216 30.0609 13.3566 29.6602C13.4174 29.4769 13.5186 29.3037 13.5997 29.1272C13.647 29.1306 13.6908 29.1374 13.7381 29.1408H13.7347Z" fill="#113053"/>
<path d="M66.3777 25.246C67.117 26.0439 68.0554 25.7927 68.9362 25.8029C70.6509 25.8232 72.3656 25.7995 74.0838 25.8097C74.56 25.8097 75.0087 25.7757 75.4039 25.4769C75.4779 25.4226 75.5794 25.4056 75.758 25.3411C75.6904 26.1322 75.6299 26.8656 75.5554 27.5956C75.5489 27.6669 75.3933 27.7925 75.3733 27.7789C75.2717 27.7212 75.1572 27.6397 75.1132 27.5379C75.0022 27.2764 75.0022 26.8588 74.8196 26.7569C74.4684 26.5668 74.0298 26.5125 73.6181 26.4785C73.1014 26.4344 72.5782 26.4751 72.0585 26.4649C71.7919 26.4615 71.6909 26.5668 71.6909 26.8418C71.6973 29.3611 71.6909 31.8771 71.7009 34.3964C71.7009 35.1672 72.008 35.4116 73.0004 35.4999C73.0814 35.7104 73.0949 35.8903 72.7913 35.8903C71.5118 35.8903 70.2322 35.8869 68.9533 35.8768C68.8757 35.8768 68.7976 35.8224 68.5751 35.7375C68.8112 35.6187 68.9433 35.51 69.0848 35.4897C69.9187 35.3606 70.1007 35.1638 70.1042 34.3387C70.1077 31.8771 70.1007 29.4155 70.1212 26.9539C70.1248 26.5464 69.9897 26.4378 69.6151 26.4548C69.0678 26.4785 68.5175 26.4582 67.9708 26.4649C67.3502 26.4717 66.8774 26.7026 66.7083 27.3613C66.6948 27.4156 66.6813 27.4801 66.6443 27.5141C66.5498 27.6058 66.4417 27.6805 66.3407 27.762C66.2767 27.6499 66.1616 27.5379 66.1616 27.4258C66.1616 27.0184 66.2057 26.6075 66.2292 26.2001C66.2462 25.9081 66.2597 25.6161 66.2767 25.3241L66.3877 25.2358L66.3777 25.246Z" fill="#113053"/>
<path d="M55.9679 36.1585C55.5358 36.0702 54.8709 35.9616 54.2228 35.7816C54.0574 35.7375 53.8853 35.4862 53.838 35.2995C53.7232 34.8207 53.6659 34.3284 53.6085 33.8361C53.595 33.7173 53.6726 33.5849 53.7064 33.4592C53.8076 33.5543 53.9629 33.6324 54.0034 33.7512C54.3544 34.7698 55.0025 35.4319 56.0928 35.6084C56.8522 35.7307 57.6624 35.3334 58.0404 34.6374C58.432 33.9244 58.361 33.1129 57.7771 32.5289C57.4632 32.2165 57.0683 31.9789 56.6936 31.7378C56.1029 31.3575 55.4616 31.0486 54.9046 30.6241C53.6288 29.6598 53.4836 27.7313 54.5502 26.5633C55.0869 25.9759 55.7958 25.7077 56.5417 25.6636C57.2843 25.6194 58.0404 25.7349 58.7866 25.8096C58.8811 25.8198 59.0127 26.0031 59.0326 26.1219C59.1037 26.526 59.1407 26.9334 59.1642 27.3409C59.1712 27.4733 59.0966 27.6091 59.0597 27.7449C58.9487 27.6464 58.7831 27.5717 58.7355 27.4461C58.4758 26.7806 58.037 26.3291 57.3282 26.1797C56.4539 25.9929 55.7755 26.2985 55.3738 27.0523C54.9991 27.7585 55.1071 28.7092 55.708 29.2389C56.0826 29.5682 56.5451 29.7923 56.9805 30.0435C57.5645 30.3797 58.1957 30.6377 58.739 31.0282C60.1401 32.0332 60.1266 34.2333 58.7525 35.2689C57.9965 35.8393 57.1426 36.111 55.9679 36.1551V36.1585Z" fill="#113053"/>
<path d="M0.155355 54.4119C0.341003 54.7921 0.496272 55.0977 0.644788 55.4067C1.11735 56.3981 2.23799 56.9108 3.29112 56.6188C4.61766 56.2521 5.10372 54.619 4.16198 53.6106C3.88857 53.3185 3.53415 53.091 3.19323 52.8772C2.61266 52.5105 1.98821 52.2049 1.42114 51.8178C0.189108 50.9792 -0.148433 49.0778 0.725801 47.8657C1.34688 47.0033 2.28524 46.7316 3.28099 46.7011C3.89194 46.6807 4.50627 46.7962 5.11722 46.8743C5.20498 46.8844 5.33662 47.0134 5.35012 47.1051C5.43114 47.5635 5.49189 48.0253 5.52902 48.487C5.53915 48.5957 5.43788 48.7111 5.38725 48.8231C5.28936 48.7281 5.13747 48.65 5.10034 48.5346C4.86069 47.8045 4.35438 47.3937 3.62528 47.2409C2.83544 47.0746 2.15022 47.387 1.76206 48.0694C1.36376 48.7722 1.42789 49.6245 2.01183 50.1745C2.39663 50.5344 2.86244 50.8128 3.31812 51.0879C3.89532 51.4376 4.52652 51.6956 5.07671 52.0827C6.518 53.0979 6.5315 55.2573 5.13747 56.3438C4.00671 57.2198 2.73417 57.359 1.38401 57.067C0.195859 56.809 0.165481 56.7716 0.07772 55.5561C0.0540918 55.2471 0.0270885 54.9381 0.00683594 54.6292C0.00683594 54.5986 0.0507164 54.5646 0.162105 54.4152L0.155355 54.4119Z" fill="#113053"/>
<path d="M53.4768 54.7244C53.4396 54.9553 53.4126 55.1896 53.362 55.417C53.3012 55.6921 53.2101 55.9603 53.146 56.2353C52.9603 57.04 52.9637 57.0468 52.1333 57.0332C50.9114 57.0129 49.6895 56.9619 48.471 56.9586C47.5023 56.9586 46.5335 57.0027 45.5648 57.0298C45.4129 57.0332 45.261 57.0298 45.0787 57.0298C45.0652 56.8533 45.0551 56.7208 45.0483 56.5986C45.099 56.5715 45.1226 56.5477 45.1496 56.5477C46.2432 56.4798 46.4019 56.3134 46.4019 55.2099C46.4019 52.9894 46.4019 50.7723 46.4019 48.5517C46.4019 47.6723 46.1352 47.3905 45.2677 47.3464C45.2138 47.3464 45.1597 47.3328 45.099 47.3226C44.9673 46.9424 45.1226 46.8507 45.4737 46.8541C46.6213 46.8711 47.7723 46.8608 48.9199 46.8778C49.0617 46.8778 49.2001 46.9933 49.3385 47.0578C49.2136 47.1563 49.0989 47.3091 48.957 47.3396C48.2347 47.4856 47.9917 47.7369 47.9883 48.4838C47.9816 50.6738 47.9816 52.8672 47.9883 55.0571C47.9883 55.7973 48.3056 56.2523 49.0145 56.3372C49.8043 56.4322 50.611 56.4493 51.4042 56.4017C52.2684 56.3508 52.697 55.7091 53.0211 54.979C53.0819 54.8433 53.2236 54.7448 53.3316 54.6293C53.3823 54.6599 53.4295 54.6939 53.4802 54.7244H53.4768Z" fill="#113053"/>
<path d="M38.4257 54.6837C38.4257 54.8772 38.4595 55.0775 38.419 55.2643C38.3212 55.7193 38.1625 56.1607 38.0781 56.6156C38.014 56.9653 37.8553 57.0672 37.511 57.0536C36.1507 57.0061 34.7871 56.9687 33.4268 56.9619C32.4445 56.9552 31.4623 57.0061 30.48 57.0197C30.3653 57.0197 30.2269 56.9891 30.1357 56.9246C30.0885 56.8906 30.0817 56.7141 30.1256 56.6597C30.183 56.5885 30.3079 56.5477 30.4058 56.5375C31.1247 56.4663 31.4589 56.1097 31.4589 55.3797C31.4589 53.132 31.4589 50.8843 31.4522 48.6332C31.4522 47.6961 31.2699 47.4992 30.3518 47.3294C30.2572 47.3124 30.1863 47.1597 30.1054 47.068C30.2235 47.0001 30.3417 46.8745 30.4564 46.8745C31.1146 46.8778 31.7762 46.9288 32.4344 46.9322C32.9374 46.9322 33.4437 46.8711 33.9466 46.8711C34.1019 46.8711 34.2537 46.9899 34.409 47.0578C34.2774 47.1529 34.1592 47.3091 34.0175 47.3362C33.2243 47.489 33.0082 47.7165 32.9812 48.6128C32.9542 49.533 32.9677 50.4497 32.9677 51.3698C32.9677 52.3885 32.9677 53.4071 32.9677 54.4257C32.9677 54.5377 32.9677 54.6532 32.9677 54.7652C32.9947 55.9128 33.2816 56.2897 34.3989 56.3949C35.0774 56.4594 35.7727 56.4221 36.4545 56.3576C37.1701 56.2931 37.6494 55.8483 37.9465 55.1964C38.0308 55.0097 38.1321 54.8297 38.2266 54.6498C38.2941 54.6599 38.3583 54.6701 38.4257 54.6769V54.6837Z" fill="#113053"/>
<path d="M60.2618 47.3123V46.854C60.5584 46.8777 60.832 46.9219 61.1057 46.9219C62.074 46.9151 63.0429 46.8948 64.0118 46.8777C64.1234 46.8777 64.2444 46.854 64.346 46.8879C64.4199 46.9151 64.5145 47.0135 64.518 47.0848C64.518 47.1562 64.4235 47.2343 64.3659 47.3022C64.3495 47.3191 64.3154 47.3191 64.2884 47.3294C63.5503 47.5489 63.1803 48.048 63.178 48.8266C63.178 51.0031 63.178 53.1829 63.178 55.3592C63.178 56.2318 63.34 56.3982 64.2009 56.5442C64.3254 56.5646 64.4305 56.7004 64.545 56.7819C64.4199 56.8634 64.2955 57.0094 64.1669 57.0128C63.6642 57.0229 63.158 56.9652 62.6548 56.9686C61.9795 56.972 61.3083 56.9992 60.6365 57.0332C60.2853 57.0501 60.1738 56.9143 60.2718 56.5849C60.2953 56.5714 60.3223 56.5476 60.3458 56.5476C61.3588 56.6189 61.6183 56.1673 61.6048 55.2234C61.5749 53.0029 61.5948 50.7824 61.5948 48.5618C61.5948 47.6553 61.3453 47.3972 60.4239 47.3463C60.3834 47.3463 60.3429 47.3294 60.2648 47.3123H60.2618Z" fill="#113053"/>
</g>
</svg>
