<svg width="87" height="80" viewBox="0 0 87 80" fill="none" xmlns="http://www.w3.org/2000/svg">
<path d="M0 40.0814V40.0166C0 31.6115 6.64622 25 15.5947 25C21.6494 25 25.5321 27.4723 28.1319 31.0344L21.9787 35.6861C20.3012 33.6319 18.3265 32.3169 15.4963 32.3169C11.3845 32.3169 8.45576 35.7185 8.45576 39.9211V40.0168C8.45576 44.349 11.3845 47.7167 15.4963 47.7167C18.5889 47.7167 20.3998 46.3046 22.1759 44.2195L28.361 48.487C25.5642 52.2404 21.8134 55 15.2658 55C6.81011 55 0 48.7105 0 40.0814Z" fill="#EB1923"/>
<path d="M43.4944 39.4403C46.2927 39.4403 47.8715 38.1253 47.8715 36.0079V35.9431C47.8715 33.6651 46.1956 32.5107 43.464 32.5107H38.0691V39.4403H43.4944ZM29.873 25.582H43.8587C48.3966 25.582 51.5241 26.735 53.4973 28.7244C55.243 30.3604 56.1287 32.606 56.1287 35.4303V35.526C56.1287 39.9215 53.7293 42.8401 50.0422 44.3804L57.0842 54.4216H47.6427L41.6881 45.6968H38.0693V54.4216H29.873V25.582Z" fill="#EB1923"/>
<path d="M58.2646 25.5811H65.93L78.1051 40.8189V25.5811H86.2013V54.4207H79.0258L66.3918 38.6037V54.4207H58.2653L58.2646 25.5811Z" fill="#EB1923"/>
</svg>
